<svg xmlns="http://www.w3.org/2000/svg" viewBox="0 0 249.08 286.16"><defs><style>.cls-1{fill:#58c0ef;}.cls-2{fill:#517cbe;}.cls-3{fill:#64bda4;}</style></defs><title>zangy a</title><polygon class="cls-1" points="145.56 0 72.21 203.66 68.51 213.9 43.16 284.31 43 284.78 42.49 286.16 0 286.16 8.89 261.46 9.27 260.43 103.07 0 145.56 0"/><polygon class="cls-2" points="103.52 0 206.59 286.16 249.08 286.16 146.01 0 103.52 0"/><polygon class="cls-3" points="204.25 138.13 199.3 142.65 167.34 171.9 45.49 283.39 44.41 284.38 43.44 285.27 1.59 285.27 10.48 260.58 10.66 260.09 74.04 202.09 75.03 201.19 152.4 130.39 184.35 101.15 195.87 90.6 201.31 85.63 202.25 102.49 204.25 138.13"/></svg>