<svg id="Layer_1" data-name="Layer 1" xmlns="http://www.w3.org/2000/svg" viewBox="0 0 820.38 528.31">
<defs>
<style>.cls-1,.cls-2{fill:#fff;stroke:#1d1d1b;stroke-miterlimit:10;}.cls-2{stroke-width:1.62px;}.cls-3{fill:none;}.cls-4{fill:#58c0ef;}.cls-5,.cls-7{fill:#517cbe;}.cls-6{fill:#64bda4;}.cls-7{font-size:486.03px;font-family:MyriadPro-Regular, Myriad Pro;}.cls-8{font-size:116.65px;fill:#6168ae;font-family:FiraCode-Bold, Fira Code;font-weight:700;}
</style>
</defs>
<title>Aitsam</title>
<path class="cls-1" d="M271.26,527.1" transform="translate(-60.87 42.94)"/>
<path class="cls-1" d="M307.93,528.72" transform="translate(-60.87 42.94)"/>
<path class="cls-2" d="M147.88,252.41" transform="translate(-60.87 42.94)"/>
<path class="cls-2" d="M207.28,255" transform="translate(-60.87 42.94)"/>
<polyline class="cls-3" points="338.18 214.53 331.8 202.63 329.12 197.66"/>
<polyline class="cls-3" points="340.4 254.23 340.17 250.17 338.18 214.53 337.24 197.66"/>
<polygon class="cls-4" points="283.7 127.28 210.34 330.94 206.65 341.18 181.3 411.59 181.13 412.06 180.63 413.44 138.14 413.44 147.03 388.75 147.4 387.71 241.21 127.28 283.7 127.28"/>
<polygon class="cls-5" points="241.66 127.28 344.73 413.44 387.22 413.44 284.15 127.28 241.66 127.28"/>
<polygon class="cls-6" points="342.38 265.41 337.44 269.93 305.48 299.17 183.63 410.67 182.54 411.66 181.57 412.55 139.73 412.55 148.62 387.86 148.8 387.37 212.18 329.37 213.16 328.46 290.54 257.67 322.49 228.43 334.01 217.88 339.45 212.91 340.39 229.77 342.38 265.41"/>
<text class="cls-7" transform="translate(0 406.81)">{</text>
<text class="cls-7" transform="matrix(-1, 0, 0, 1, 820.38, 406.81)">{</text>
<text class="cls-8" transform="translate(342.38 276.72)">itsam</text>
<text class="cls-8" transform="translate(395.49 400.15)">had</text>
</svg>