<?xml version="1.0" encoding="UTF-8"?>
<svg width="125px" height="106px" viewBox="0 0 125 106" version="1.1" xmlns="http://www.w3.org/2000/svg" xmlns:xlink="http://www.w3.org/1999/xlink">
    <!-- Generator: Sketch 52.5 (67469) - http://www.bohemiancoding.com/sketch -->
    <title>Group 7</title>
    <desc>Created with Sketch.</desc>
    <g id="V3" stroke="none" stroke-width="1" fill="none" fill-rule="evenodd">
        <g id="-1440---Desktop---Home---V2" transform="translate(-1045.000000, -4668.000000)">
            <g id="Slide-6" transform="translate(0.000000, 3915.000000)">
                <g id="Group-8" transform="translate(180.000000, 162.000000)">
                    <g id="Content-Copy-6" transform="translate(750.000000, 534.000000)">
                        <g id="Group-7" transform="translate(115.000000, 60.000000)">
                            <g id="rocket">
                                <path d="M107.54013,46.0589991 C133.737012,68.6864991 78.0198462,111.509249 53.3154818,87.2739991 C20.996413,55.5687491 0,79.1739991 0,44.6377491 C0,10.1014991 8.15638866,18.9089991 44.7537085,3.4227491 C76.6686478,-10.0820009 76.115919,18.9164991 107.54013,46.0589991 Z" id="Path" fill="#79A1E8"></path>
                                <g id="912269" transform="translate(0.000000, 11.000000)">
                                    <path d="M13.4997895,66.1839375 C12.9745107,65.6576328 12.1228382,65.6576328 11.5977388,66.1839375 L7.02446004,70.7661484 C6.49918129,71.2924531 6.49918129,72.1457891 7.02446004,72.6719141 C7.54973879,73.1982187 8.40141131,73.1982187 8.92651072,72.6719141 L13.4997895,68.0897031 C14.0250682,67.5635781 14.0250682,66.7102422 13.4997895,66.1839375 Z" id="Path" fill="#4B31AA"></path>
                                    <path d="M17.9487875,70.641625 C17.4235088,70.1153203 16.5718363,70.1153203 16.0467368,70.641625 L11.4734581,75.2238359 C10.9481793,75.7501406 10.9481793,76.6034766 11.4734581,77.1296016 C11.9987368,77.6559063 12.8504094,77.6559063 13.3755088,77.1296016 L17.9487875,72.5473906 C18.4740663,72.0212656 18.4740663,71.1679297 17.9487875,70.641625 Z" id="Path" fill="#4B31AA"></path>
                                    <path d="M26.8466043,79.5568203 C26.3215049,79.0305156 25.4698324,79.0305156 24.9445536,79.5568203 L20.3712749,84.1390313 C19.8459961,84.6653359 19.8459961,85.5186719 20.3712749,86.0447969 C20.8965536,86.5711016 21.7482261,86.5711016 22.2733255,86.0447969 L26.8466043,81.4625859 C27.371883,80.9364609 27.371883,80.083125 26.8466043,79.5568203 Z" id="Path" fill="#4B31AA"></path>
                                    <path d="M22.3976062,75.0993125 C21.8723275,74.5730078 21.020655,74.5730078 20.4955556,75.0993125 L15.9222768,79.6815234 C15.3969981,80.2078281 15.3969981,81.0611641 15.9222768,81.5872891 C16.4475556,82.1135937 17.2992281,82.1135937 17.8243275,81.5872891 L22.3976062,77.0050781 C22.922885,76.4789531 22.922885,75.6256172 22.3976062,75.0993125 Z" id="Path" fill="#4B31AA"></path>
                                    <path d="M62.6080668,66.1105592 L62.6691895,66.1265625 L60.8017853,72.6520072 L60.661884,72.6520072 C60.6685201,72.7011577 60.663854,72.7497976 60.6462924,72.7973359 C58.0841014,79.7345312 54.1413723,85.9008672 48.9271423,91.1251016 C48.100577,91.9534609 46.9063704,92.2154453 45.8134893,91.8167187 C44.7173801,91.4170937 43.9734893,90.4455234 43.8719844,89.2813281 L42.4451774,72.9155703 L40.8404678,74.5234141 C39.7463314,75.6195078 37.9621053,75.6232812 36.8645614,74.5234141 L35.3186745,72.9745078 L32.0059571,76.2936953 C30.7088109,77.5937344 28.5972943,77.5937344 27.2999688,76.2936953 C25.8744172,74.8653594 17.0942456,66.0680391 15.6762261,64.64725 C14.3787212,63.3473906 14.3787212,61.2319297 15.6762261,59.9320703 L18.9891228,56.6127031 L17.35554,54.9759297 C16.3048031,53.9233203 16.3053411,52.2197031 17.35554,51.1678125 L19.0477661,49.4721016 L2.71373099,48.0425078 C0.203906433,47.8229297 -0.910136452,44.7642891 0.87337232,42.9772969 C9.34705653,34.4870625 20.5902456,29.2565391 32.5317739,28.2495703 L40.9364133,27.5408828 L59.7472749,8.69328125 C59.906885,8.53317969 60.1041559,8.41602344 60.3209747,8.35259375 C65.8653645,6.72875781 82.6255049,1.82005469 88.4693879,0.10853125 C90.4455049,-0.471320313 92.2921404,1.37191406 91.7127018,3.35782031 L87.2197661,18.7581172 L83.4845302,31.5613906 C83.4210448,31.7786328 83.3042963,31.9762891 83.1445068,32.1362109 L64.3336452,50.9838125 C63.5738802,60.0665918 63.4914624,62.1272129 62.6080668,66.1105592 Z M60.0035137,65.7812866 C59.9803089,65.7689588 59.9569466,65.7564909 59.9334269,65.7438828 C60.5405432,62.3245495 61.0261884,58.3875964 61.3903626,53.9330234 L44.9286394,70.4268984 L46.5518207,89.0464766 C46.5726238,89.2863594 46.8565146,89.3882422 47.0249123,89.2191562 C51.873148,84.3614513 55.5609768,78.6435204 57.9899453,72.2189447 L60.0035137,65.7812866 Z" id="Shape" fill="#4B31AA" fill-rule="nonzero"></path>
                                    <path d="M21.422191,65.5870156 C21.251462,65.7580781 21.1026121,65.9451328 20.973848,66.1433281 L17.5782768,62.7414844 C17.3340195,62.4965703 17.3340195,62.0829297 17.5782768,61.8380156 L20.8911735,58.5184687 C22.6068928,60.2377187 23.4470877,61.0795547 24.6841559,62.3188594 L21.422191,65.5870156 Z" id="Path" fill="#FBB03B" fill-rule="nonzero"></path>
                                    <path d="M30.1035478,74.38775 C29.9430409,74.5483906 29.7522261,74.5724687 29.652694,74.5724687 C29.5531618,74.5724687 29.362347,74.5483906 29.2018402,74.38775 L25.8064483,70.9855469 C26.0042573,70.8565312 26.190768,70.7073906 26.3616764,70.5363281 L29.623462,67.2681719 L33.4164444,71.0685625 L30.1035478,74.38775 Z" id="Path" fill="#FBB03B" fill-rule="nonzero"></path>
                                    <path d="M2.94794542,45.3574375 C2.71014425,45.3367734 2.60648733,45.0530469 2.77578168,44.8834219 C10.8007641,36.8427656 21.4485536,31.8893203 32.7573801,30.9355391 L37.9886472,30.4944062 L21.5314074,46.9837891 L2.94794542,45.3574375 Z" id="Path" fill="#5C7BBF" fill-rule="nonzero"></path>
                                    <path d="M22.0389318,50.2868047 L29.3657544,57.6279375 L26.5862066,60.4127344 C23.6836335,57.5044922 19.9094815,53.7265625 19.2575906,53.0735781 L22.0389318,50.2868047 Z" id="Path" fill="#5C7BBF" fill-rule="nonzero"></path>
                                    <path d="M24.5254425,68.5644375 C24.2121404,68.8781719 23.704616,68.8794297 23.3902378,68.5644375 C23.0772943,68.2508828 23.0772943,67.74075 23.3902378,67.4270156 C24.4818635,66.3332578 48.7399142,42.0278281 50.2009747,40.5639141 C50.5140975,40.2501797 51.0232359,40.2503594 51.3361793,40.5639141 C51.6493021,40.8778281 51.6503782,41.3865234 51.3361793,41.7013359 L33.3542144,59.7184219 C32.386152,60.688375 25.360616,67.7276328 24.5254425,68.5644375 Z" id="Path" fill="#5C7BBF" fill-rule="nonzero"></path>
                                    <path d="M38.9380585,72.6174687 C38.9351891,72.6203437 38.9316023,72.6212422 38.9285536,72.6237578 C38.8806706,72.6629297 38.8109084,72.6618516 38.7666121,72.6174687 C37.9642573,71.8133672 32.3689357,66.2069375 31.5258713,65.3622266 L34.3052398,62.57725 L41.631883,69.9183828 L38.9380585,72.6174687 Z" id="Path" fill="#5C7BBF" fill-rule="nonzero"></path>
                                    <polygon id="Path" fill="#5C7BBF" fill-rule="nonzero" points="85.2746745 15.8184297 76.0332476 6.55895312 89.0916881 2.73430469"></polygon>
                                    <path d="M80.9992749,30.4744609 C79.2198908,32.2573203 45.1122807,66.4315469 43.5344717,68.0124375 L36.2078285,60.6713047 L53.3042261,43.5415156 C54.5364522,42.3068828 54.7729981,40.1957344 53.1725926,38.5922031 C51.8440624,37.2610781 49.6936296,37.2608984 48.3645614,38.5922031 L31.2679844,55.7221719 L23.9411618,48.3810391 C25.4348616,46.8844219 59.662269,12.5901641 61.4059649,10.8430625 L73.0892476,7.42109375 L84.4140351,18.7681797 L80.9992749,30.4744609 Z" id="Path" fill="#FFFFFF" fill-rule="nonzero"></path>
                                    <circle id="Oval" stroke="#4B31AA" stroke-width="2" fill="#FBB03B" fill-rule="nonzero" cx="63" cy="27" r="7"></circle>
                                    <path d="M44.5839844,70.5976562 C46.0970052,68.6516927 51.7102865,63.1051432 61.4238281,53.9580078 C61.686849,66.5120443 56.8300781,78.4794922 46.8535156,89.8603516 C46.8535156,89.8603516 44.5839844,71.9818412 44.5839844,70.5976562 Z" id="Path-3" fill="#5C7BBF" fill-rule="nonzero"></path>
                                </g>
                            </g>
                            <polygon id="Star" stroke="#4B31AA" stroke-width="2" fill="#FBB03B" fill-rule="nonzero" points="112.5 25.75 106.328255 28.9946784 107.506953 22.1223392 102.513907 17.2553216 109.414127 16.2526608 112.5 10 115.585873 16.2526608 122.486093 17.2553216 117.493047 22.1223392 118.671745 28.9946784"></polygon>
                            <polygon id="Star-Copy-5" stroke="#4B31AA" stroke-width="2" fill="#FBB03B" fill-rule="nonzero" points="36.5 9.75 32.6793959 11.7586105 33.4090663 7.50430523 30.3181326 4.49138954 34.5896979 3.87069477 36.5 0 38.4103021 3.87069477 42.6818674 4.49138954 39.5909337 7.50430523 40.3206041 11.7586105"></polygon>
                            <polygon id="Star-Copy-6" stroke="#4B31AA" stroke-width="2" fill="#FBB03B" fill-rule="nonzero" points="84.5 73.75 80.6793959 75.7586105 81.4090663 71.5043052 78.3181326 68.4913895 82.5896979 67.8706948 84.5 64 86.4103021 67.8706948 90.6818674 68.4913895 87.5909337 71.5043052 88.3206041 75.7586105"></polygon>
                        </g>
                    </g>
                </g>
            </g>
        </g>
    </g>
</svg>