<?xml version="1.0" encoding="UTF-8"?>
<svg width="124px" height="122px" viewBox="0 0 124 122" version="1.1" xmlns="http://www.w3.org/2000/svg" xmlns:xlink="http://www.w3.org/1999/xlink">
    <!-- Generator: Sketch 52.5 (67469) - http://www.bohemiancoding.com/sketch -->
    <title>576981</title>
    <desc>Created with Sketch.</desc>
    <g id="V3" stroke="none" stroke-width="1" fill="none" fill-rule="evenodd">
        <g id="-1440---Desktop---Home---V2" transform="translate(-293.000000, -4661.000000)">
            <g id="Slide-6" transform="translate(0.000000, 3915.000000)">
                <g id="Group-8" transform="translate(180.000000, 162.000000)">
                    <g id="Content-Copy-4" transform="translate(0.000000, 534.000000)">
                        <g id="576981" transform="translate(113.000000, 50.000000)">
                            <path d="M116.62953,61.3551657 C144.617385,85.4830409 85.0773036,131.168811 58.6708259,105.319298 C24.1315547,71.5103314 5.30564372,96.6861598 5.30564372,59.8331384 C5.30564372,22.980117 10.4262915,32.3867446 49.5339838,15.8690058 C83.6214332,1.47212476 83.0441053,32.4116959 116.62953,61.3551657 Z" id="Path" fill="#79A1E8"></path>
                            <path d="M103.827911,109.361404 L99.6862105,100.603509 L104.781757,91.8705653 L118.236008,91.8955166 L118.236008,88.4522417 L104.63115,84.5348928 C97.7283158,84.5348928 91.8295304,88.8265107 89.4700162,94.8647173 L29.8797328,94.7898635 C27.5453198,88.7267057 21.6716356,84.4350877 14.7437004,84.4101365 L1.13884211,88.3025341 L1.13884211,91.745809 L14.2918785,91.7707602 L19.3623239,100.528655 L15.4967368,109.261598 L1.13884211,105.793372 L1.13884211,110.159844 C4.02548178,114.60117 9.0457247,116.846784 14.7437004,116.846784 C21.6465344,116.846784 28.3234575,113.253801 31.661919,106.267446 L87.6627287,106.3423 C90.8254818,113.777778 97.1760891,116.946589 104.078923,116.946589 C109.776899,116.946589 115.324267,113.802729 118.210907,109.361404 L118.210907,105.918129 L103.827911,109.361404 Z" id="Path" fill="#7693DD"></path>
                            <path d="M89.444915,102.899025 L29.8546316,102.849123 C27.5202186,108.912281 21.6214332,113.203899 14.693498,113.178947 C8.99552227,113.178947 3.97527935,110.234698 1.08863968,105.793372 L15.4716356,105.818324 L20.5671822,97.0853801 L15.4967368,88.3274854 L1.11374089,88.3025341 C4.00038057,83.8861598 9.02062348,80.9419103 14.7185992,80.9419103 C21.6214332,80.9419103 27.5202186,85.2584795 29.8546316,91.3216374 L89.444915,91.3964912 C91.7793279,85.3333333 97.6781134,81.0417154 104.606049,81.0666667 C110.304024,81.0666667 115.324267,84.0109162 118.210907,88.4522417 L103.827911,88.4272904 L98.7323644,97.1602339 L103.80281,105.918129 L118.185806,105.94308 C115.299166,110.359454 110.278923,113.303704 104.580947,113.303704 C97.6530121,113.278752 91.7793279,108.962183 89.444915,102.899025 Z" id="Path" fill="#FFFFFF"></path>
                            <path d="M98.7574656,97.1602339 L103.853012,88.4272904 L118.236008,88.4522417 C115.349368,84.0109162 110.354227,81.0666667 104.63115,81.0666667 C97.7283158,81.0666667 91.8295304,85.3582846 89.4700162,91.3964912 L83.0943077,91.3964912 L71.5226478,102.899025 L89.444915,102.923977 C91.7793279,108.987135 97.6530121,113.278752 104.580947,113.303704 C110.278923,113.303704 115.299166,110.384405 118.185806,105.94308 L103.80281,105.918129 L98.7574656,97.1602339 Z" id="Path" fill="#CFDDF7"></path>
                            <g id="Group" transform="translate(0.000000, 79.844055)" fill="#4B31AA">
                                <path d="M84.0732551,18.31423 L35.2513927,18.2643275 C34.699166,18.2643275 34.2222429,17.8152047 34.2473441,17.2413255 C34.2473441,16.6923977 34.699166,16.2432749 35.2764939,16.2432749 L84.0983563,16.2931774 C84.650583,16.2931774 85.1275061,16.7423002 85.1024049,17.3161793 C85.1024049,17.8651072 84.6254818,18.31423 84.0732551,18.31423 Z" id="Path"></path>
                                <path d="M118.210907,13.0744639 C118.48702,13.0744639 118.738032,12.9746589 118.938842,12.7750487 C119.139652,12.5754386 119.240057,12.3259259 119.240057,12.051462 L119.240057,8.60818713 C119.240057,8.408577 119.189854,8.23391813 119.089449,8.05925926 C115.901595,3.14385965 110.504834,0.224561404 104.63115,0.224561404 L104.606049,0.224561404 C97.753417,0.224561404 91.5032146,4.34152047 88.7922834,10.554386 L30.5825668,10.4795322 C27.8967368,4.2417154 21.6214332,0.0998050682 14.7688016,0.0998050682 L14.7437004,0.0998050682 C8.89511741,0.0998050682 3.49835628,3.01910331 0.28540081,7.90955166 C0.184995951,8.08421053 0.134793522,8.2588694 0.134793522,8.45847953 L0.134793522,11.9017544 C0.134793522,12.1762183 0.235198381,12.425731 0.436008097,12.6253411 C0.636817814,12.8249513 0.88782996,12.9247563 1.16394332,12.9247563 L13.7396518,12.9497076 L17.7809474,20.0109162 L14.8943077,24.9512671 L1.11374089,24.9263158 C0.737222672,24.9263158 0.410906883,25.1259259 0.210097166,25.4502924 C0.134793522,25.6 0.0845910931,25.7746589 0.0845910931,25.9243665 L0.0845910931,30.2908382 C0.0845910931,30.4904483 0.134793522,30.6651072 0.235198381,30.8397661 C3.1971417,35.3808967 8.44329555,37.9758285 14.693498,38.0007797 L14.7185992,38.0007797 C22.1987611,38.0007797 28.850583,33.9586745 32.239247,27.4214425 L86.9598947,27.471345 C90.0975466,34.3079922 96.1469393,38.0756335 104.053822,38.0756335 L104.078923,38.0756335 C109.977709,38.0756335 115.851393,34.9317739 119.039247,30.0413255 C119.139652,29.8666667 119.214955,29.6920078 119.214955,29.4923977 L119.214955,26.0491228 C119.214955,25.8994152 119.164753,25.7247563 119.089449,25.5750487 C118.913741,25.2506823 118.562324,25.0510721 118.185806,25.0510721 L104.405239,25.0261209 L101.443296,19.9111111 L105.359085,12.9996101 L118.210907,13.0744639 Z M15.1704211,11.4276803 C14.9947126,11.1033138 14.6432955,10.928655 14.2918785,10.928655 L2.14289069,10.9037037 L2.14289069,9.48148148 L14.9194089,9.50643275 L19.4125263,17.2413255 L18.9858057,17.9898635 L15.1704211,11.4276803 Z M117.181757,29.0183236 L117.181757,29.242885 C114.34532,33.3598441 109.124267,36.1044834 104.078923,36.1044834 L104.053822,36.1044834 C96.7995709,36.1044834 91.2773036,32.5614035 88.5663725,26.1239766 C88.4157652,25.7497076 88.039247,25.5001949 87.6376275,25.5001949 L31.6368178,25.4253411 C31.2351984,25.4253411 30.8837814,25.6499025 30.7080729,25.9992203 C27.7210283,32.2619883 21.7469393,35.9797271 14.7437004,35.9797271 L14.693498,35.9797271 C9.19633198,35.9797271 4.72831579,33.8588694 2.11778947,29.991423 L2.11778947,28.868616 C5.35584615,32.3368421 9.87406478,34.3329435 14.7185992,34.3578947 L14.7437004,34.3578947 C21.596332,34.3578947 27.8465344,30.2409357 30.5574656,24.0280702 L88.7671822,24.102924 C91.4530121,30.3407407 97.7283158,34.4826511 104.580947,34.4826511 L104.606049,34.4826511 C109.425482,34.4576998 113.9437,32.4615984 117.181757,29.0183236 Z M103.827911,27.097076 L116.177709,27.1220273 C113.31617,30.4904483 109.099166,32.4615984 104.606049,32.4615984 C104.606049,32.4615984 104.606049,32.4615984 104.580947,32.4615984 C98.3307449,32.4615984 92.6327692,28.5442495 90.3987611,22.7306043 C90.2481538,22.331384 89.8716356,22.0818713 89.444915,22.0818713 L29.8546316,22.0070175 C29.4279109,22.0070175 29.0513927,22.2565302 28.9007854,22.6557505 C26.6667773,28.4444444 20.9688016,32.3368421 14.7185992,32.3368421 C14.7185992,32.3368421 14.7185992,32.3368421 14.693498,32.3368421 C10.1752794,32.3368421 5.98337652,30.365692 3.09673684,26.9723197 L15.4465344,26.997271 C15.7979514,26.997271 16.1493684,26.7976608 16.3250769,26.4982456 L21.4206235,17.7653021 C21.596332,17.4409357 21.596332,17.0666667 21.4206235,16.7423002 L16.3501781,7.98440546 C16.1744696,7.66003899 15.8230526,7.48538012 15.4716356,7.48538012 L3.12183806,7.46042885 C5.98337652,4.0920078 10.2003806,2.1208577 14.693498,2.1208577 C14.693498,2.1208577 14.693498,2.1208577 14.7185992,2.1208577 C20.9688016,2.1208577 26.6667773,6.03820663 28.9007854,11.8518519 C29.0513927,12.2510721 29.4279109,12.5005848 29.8546316,12.5005848 L89.444915,12.5754386 C89.8716356,12.5754386 90.2481538,12.3259259 90.3987611,11.9267057 C92.6327692,6.1380117 98.3307449,2.24561404 104.580947,2.24561404 C104.580947,2.24561404 104.580947,2.24561404 104.606049,2.24561404 C109.124267,2.24561404 113.31617,4.21676413 116.20281,7.61013645 L103.853012,7.58518519 C103.501595,7.58518519 103.150178,7.78479532 102.97447,8.08421053 L97.8789231,16.817154 C97.7032146,17.1415205 97.7032146,17.5157895 97.8789231,17.8401559 L102.949368,26.5980507 C103.125077,26.8974659 103.451393,27.097076 103.827911,27.097076 Z M104.756656,11.02846 C104.405239,11.02846 104.053822,11.2280702 103.878113,11.5274854 L100.213336,17.8152047 L99.9121215,17.3161793 L104.405239,9.58128655 L117.181757,9.60623782 L117.181757,11.02846 L104.756656,11.02846 Z" id="Shape" fill-rule="nonzero"></path>
                            </g>
                            <path d="M93.6870202,22.9302144 L92.9841862,15.0705653 L84.9015951,15.0705653 L84.0983563,22.9551657 C83.019004,23.1797271 81.964753,23.454191 80.9607045,23.8035088 L76.3671822,17.2912281 L69.3639433,21.3083821 L72.6773036,28.6191033 C71.899166,29.3177388 71.1461296,30.0413255 70.4683968,30.8397661 L63.0384372,27.3964912 L58.9971417,34.3578947 L65.6238623,39.0986355 C65.2975466,40.0717349 65.0214332,41.0947368 64.7955223,42.1426901 L56.6125263,42.8662768 L56.6125263,50.9005848 L64.7704211,51.7239766 C64.996332,52.8218324 65.2724453,53.9196881 65.6238623,54.9676413 L58.9971417,59.7083821 L63.0384372,66.6697856 L70.4683968,63.2265107 C71.1712308,64.0249513 71.9242672,64.7734893 72.7275061,65.4721248 L69.3639433,72.8077973 L76.3671822,76.8249513 L81.0109069,70.2128655 C82.0149555,70.5621832 83.0441053,70.8366472 84.0983563,71.0362573 L84.9015951,78.9208577 L92.9841862,78.9208577 L93.6870202,71.0612086 C94.7914737,70.8615984 95.8457247,70.5621832 96.8999757,70.2128655 L101.518599,76.5754386 L108.521838,72.5582846 L105.208478,65.4721248 C106.061919,64.7235867 106.890259,63.9251462 107.643296,63.0768031 L114.696737,66.245614 L118.738032,59.2842105 L112.412526,54.8678363 C112.789045,53.7949318 113.065158,52.697076 113.291069,51.574269 L120.946939,50.8007797 L120.946939,42.7664717 L113.265968,42.0927875 C113.065158,41.0448343 112.763943,40.0218324 112.437628,39.0237817 L118.763134,34.6074074 L114.646534,27.745809 L111.308073,27.745809 L107.593093,30.9146199 C106.840057,30.0662768 106.061919,29.2678363 105.208478,28.5442495 L108.496737,21.5329435 L101.493498,17.4908382 L98.1550364,17.4908382 L93.6870202,22.9302144 Z M89.6206235,54.6682261 C84.8764939,55.0424951 80.9356032,51.1251462 81.3121215,46.4093567 C81.613336,42.6916179 84.6254818,39.6725146 88.3655628,39.3980507 C93.1096923,39.0237817 97.050583,42.9411306 96.6740648,47.6569201 C96.3979514,51.3497076 93.3607045,54.3688109 89.6206235,54.6682261 Z" id="Shape" fill="#473CBA" fill-rule="nonzero"></path>
                            <path d="M117.558275,50.8756335 L117.558275,42.8413255 L109.877304,42.1676413 C109.676494,41.1196881 109.375279,40.0966862 109.048964,39.0986355 L115.37447,34.6822612 L111.308073,27.745809 L104.254632,30.8896686 C103.501595,30.0413255 102.723457,29.242885 101.870016,28.5192982 L105.158275,21.5079922 L98.1550364,17.4908382 L93.6117166,23.7785575 C92.5574656,23.4292398 91.4530121,23.1298246 90.3485587,22.9302144 L89.6457247,15.0705653 L81.5631336,15.0705653 L80.7598947,22.9551657 C79.6805425,23.1797271 78.6262915,23.454191 77.6222429,23.8035088 L73.0287206,17.2912281 L66.0254818,21.3083821 L69.3388421,28.6191033 C68.5607045,29.3177388 67.807668,30.0413255 67.1299352,30.8397661 L59.6999757,27.3964912 L55.6586802,34.3578947 L62.2854008,39.0986355 C61.959085,40.0717349 61.6829717,41.0947368 61.4570607,42.1426901 L53.2740648,42.8662768 L53.2740648,50.9005848 L61.4319595,51.7239766 C61.6578704,52.8218324 61.9339838,53.9196881 62.2854008,54.9676413 L55.6586802,59.7083821 L59.6999757,66.6697856 L67.1299352,63.2265107 C67.8327692,64.0249513 68.5858057,64.7734893 69.3890445,65.4721248 L66.050583,72.8576998 L73.0538219,76.8748538 L77.6975466,70.262768 C78.7015951,70.6120858 79.7307449,70.8865497 80.784996,71.0861598 L81.5882348,78.9707602 L89.6708259,78.9707602 L90.3736599,71.1111111 C91.4781134,70.911501 92.5323644,70.6120858 93.5866154,70.262768 L98.2052389,76.6253411 L105.208478,72.6081871 L101.895117,65.5220273 C102.748559,64.7734893 103.576899,63.9750487 104.329935,63.1267057 L111.383377,66.2955166 L115.424672,59.3341131 L109.023862,54.9177388 C109.400381,53.8448343 109.676494,52.7469786 109.902405,51.6241715 L117.558275,50.8756335 Z M86.2821619,54.6682261 C81.5380324,55.0424951 77.5971417,51.1251462 77.9736599,46.4093567 C78.2748745,42.6916179 81.2870202,39.6725146 85.0271012,39.3980507 C89.7712308,39.0237817 93.7121215,42.9411306 93.3356032,47.6569201 C93.0594899,51.3497076 90.0222429,54.3688109 86.2821619,54.6682261 Z" id="Shape" fill="#D7ECF9" fill-rule="nonzero"></path>
                            <g id="Group" transform="translate(55.473684, 41.169591)" fill="#4B31AA">
                                <path d="M6.00847773,0.973099415 C6.05868016,0.723586745 6.10888259,0.474074074 6.15908502,0.224561404 L1.06353846,0.673684211 C0.611716599,0.723586745 0.235198381,1.04795322 0.159894737,1.47212476 L6.00847773,0.973099415 Z" id="Path"></path>
                                <path d="M1.06353846,10.7290448 L6.10888259,11.2280702 C6.05868016,11.0035088 6.00847773,10.7539961 5.9582753,10.5294347 L0.159894737,9.95555556 C0.260299595,10.3547758 0.611716599,10.6791423 1.06353846,10.7290448 Z" id="Path"></path>
                                <path d="M65.4230526,2.69473684 L62.0845911,2.69473684 C61.5323644,2.69473684 61.0554413,2.24561404 61.0554413,1.67173489 C61.0554413,1.09785575 61.5072632,0.648732943 62.0845911,0.648732943 L65.4230526,0.648732943 C65.9752794,0.648732943 66.4522024,1.09785575 66.4522024,1.67173489 C66.4271012,2.24561404 65.9752794,2.69473684 65.4230526,2.69473684 Z" id="Path"></path>
                                <path d="M65.4230526,10.7290448 L62.0845911,10.7290448 C61.5323644,10.7290448 61.0554413,10.279922 61.0554413,9.70604288 C61.0554413,9.13216374 61.5072632,8.68304094 62.0845911,8.68304094 L65.4230526,8.68304094 C65.9752794,8.68304094 66.4522024,9.13216374 66.4522024,9.70604288 C66.4271012,10.279922 65.9752794,10.7290448 65.4230526,10.7290448 Z" id="Path"></path>
                                <path d="M53.0230526,32.4615984 L49.6845911,32.4615984 C49.1323644,32.4615984 48.6554413,32.0124756 48.6554413,31.4385965 C48.6554413,30.8647173 49.1072632,30.4155945 49.6845911,30.4155945 L53.0230526,30.4155945 C53.5752794,30.4155945 54.0522024,30.8647173 54.0522024,31.4385965 C54.0522024,32.0124756 53.6003806,32.4615984 53.0230526,32.4615984 Z" id="Path"></path>
                            </g>
                            <path d="M37.0837814,60.731384 L37.0837814,57.5625731 L34.0465344,57.2881092 C33.9712308,56.8639376 33.8457247,56.4647173 33.7202186,56.0654971 L36.2303401,54.3189084 L34.6238623,51.574269 L31.8376275,52.8218324 C31.536413,52.4974659 31.2351984,52.1730994 30.8837814,51.8736842 L32.1890445,49.1040936 L29.4279109,47.5072125 L27.6206235,50.0023392 C27.1939028,49.8526316 26.7671822,49.7528265 26.3153603,49.6530214 L26.039247,46.5341131 L22.8262915,46.5341131 L22.4999757,49.6530214 C22.0732551,49.7278752 21.6465344,49.8526316 21.244915,49.9773879 L19.4125263,47.4074074 L16.6513927,49.0042885 L17.9566559,51.8986355 C17.6554413,52.1730994 17.3542267,52.4725146 17.0781134,52.7719298 L14.1412713,51.3996101 L12.5347935,54.1442495 L15.1704211,56.0155945 C15.044915,56.4148148 14.9194089,56.8140351 14.8441053,57.2132554 L11.6311498,57.5376218 L11.6311498,60.7064327 L14.8692065,61.0307992 C14.9445101,61.479922 15.0700162,61.9040936 15.2206235,62.3033138 L12.584996,64.1746589 L14.1914737,66.9192982 L17.1283158,65.5469786 C17.4044291,65.871345 17.7056437,66.145809 18.0319595,66.4452242 L16.6764939,69.414425 L19.4376275,71.011306 L21.2700162,68.391423 C21.6716356,68.5161793 22.0732551,68.6409357 22.4999757,68.7157895 L22.8262915,71.8346979 L26.0141457,71.8346979 L26.2902591,68.7157895 C26.7169798,68.6409357 27.1437004,68.5161793 27.5704211,68.391423 L29.4028097,70.911501 L32.1639433,69.3146199 L30.8586802,66.520078 C31.2100972,66.2206628 31.5113117,65.8962963 31.8125263,65.5719298 L34.5987611,66.8194932 L36.2052389,64.0748538 L33.6951174,62.3282651 C33.8457247,61.9040936 33.9461296,61.479922 34.0465344,61.0307992 L37.0837814,60.731384 Z M24.7088826,62.22846 C22.8262915,62.3781676 21.2700162,60.8311891 21.4206235,58.9598441 C21.5461296,57.4877193 22.7258866,56.2900585 24.2068583,56.1902534 C26.0894494,56.0405458 27.6457247,57.5875244 27.4951174,59.4588694 C27.3696113,60.9060429 26.1898543,62.1037037 24.7088826,62.22846 Z" id="Shape" fill="#FFFFFF" fill-rule="nonzero"></path>
                            <path d="M26.039247,72.8576998 L22.8262915,72.8576998 C22.299166,72.8576998 21.8724453,72.4584795 21.8222429,71.9594542 L21.596332,69.7387914 L20.2910688,71.6101365 C19.9898543,72.034308 19.4125263,72.1590643 18.9607045,71.9095517 L16.1995709,70.3126706 C15.747749,70.0631579 15.5720405,69.4892788 15.7728502,69.0152047 L16.7266964,66.9192982 L14.6432955,67.8923977 C14.1663725,68.1169591 13.5890445,67.9423002 13.3380324,67.4931774 L11.7315547,64.748538 C11.4805425,64.2994152 11.6060486,63.7255361 12.007668,63.4261209 L13.990664,62.0038986 L11.5558462,61.754386 C11.0287206,61.7044834 10.6522024,61.2803119 10.6522024,60.7563353 L10.6522024,57.5875244 C10.6522024,57.0635478 11.0538219,56.614425 11.5809474,56.5894737 L13.8902591,56.3898635 L12.0327692,55.0424951 C11.6060486,54.7430799 11.4805425,54.1692008 11.7566559,53.720078 L13.3631336,50.9754386 C13.639247,50.5263158 14.1914737,50.3516569 14.6683968,50.5762183 L16.7517976,51.5243665 L15.8230526,49.4783626 C15.5971417,49.0042885 15.7979514,48.4553606 16.2497733,48.1808967 L19.0109069,46.5840156 C19.4627287,46.3095517 20.0400567,46.4592593 20.3412713,46.8834308 L21.6465344,48.7298246 L21.8724453,46.4842105 C21.9226478,45.9602339 22.3744696,45.5859649 22.8764939,45.5859649 L26.0643482,45.5859649 C26.5914737,45.5859649 27.0432955,45.9851852 27.0683968,46.5091618 L27.2692065,48.8046784 L28.5995709,46.9582846 C28.9007854,46.5341131 29.4781134,46.4093567 29.9299352,46.6838207 L32.6910688,48.2807018 C33.1428907,48.5551657 33.3185992,49.1040936 33.0926883,49.5781676 L32.1388421,51.6241715 L34.1971417,50.7009747 C34.6740648,50.4764133 35.2262915,50.6760234 35.5024049,51.1251462 L37.1088826,53.8697856 C37.384996,54.3189084 37.2343887,54.8927875 36.807668,55.1922027 L35.0756842,56.3898635 L37.1841862,56.5645224 C37.7113117,56.614425 38.1129312,57.0385965 38.1129312,57.5625731 L38.1129312,60.731384 C38.1129312,61.2553606 37.7113117,61.6795322 37.2092874,61.7294347 L34.9752794,61.9539961 L36.8327692,63.251462 C37.2594899,63.5508772 37.384996,64.1247563 37.1339838,64.5738791 L35.5275061,67.3185185 C35.2764939,67.7676413 34.699166,67.9423002 34.2222429,67.7426901 L32.1388421,66.8194932 L33.1177895,68.9153996 C33.3437004,69.3894737 33.1679919,69.9633528 32.71617,70.2128655 L29.9550364,71.8097466 C29.5032146,72.0592593 28.9258866,71.9345029 28.6246721,71.5352827 L27.2943077,69.6888889 L27.093498,71.9345029 C26.9930931,72.4584795 26.5663725,72.8576998 26.039247,72.8576998 Z M23.7550364,70.8366472 L25.110502,70.8366472 L25.3113117,68.6409357 C25.3615142,68.1918129 25.68783,67.8175439 26.1396518,67.7426901 C26.51617,67.6678363 26.9177895,67.5680312 27.2692065,67.4432749 C27.6959271,67.2935673 28.147749,67.4432749 28.4238623,67.8175439 L29.7040243,69.5890838 L30.8586802,68.9153996 L29.9299352,66.9442495 C29.7291255,66.5450292 29.8546316,66.0460039 30.1809474,65.7465887 C30.4821619,65.4721248 30.7833765,65.1976608 31.0343887,64.8982456 C31.3356032,64.5738791 31.8125263,64.4491228 32.2141457,64.6487329 L34.1720405,65.5220273 L34.8497733,64.374269 L33.1177895,63.1516569 C32.7412713,62.9021442 32.590664,62.4280702 32.7412713,62.0038986 C32.8667773,61.6296296 32.9671822,61.2304094 33.0424858,60.8311891 C33.1177895,60.3820663 33.4943077,60.0576998 33.9461296,60.0077973 L36.0546316,59.8081871 L36.0546316,58.4608187 L33.9461296,58.2861598 C33.4943077,58.2362573 33.1177895,57.9118908 33.0424858,57.4877193 C32.9671822,57.1134503 32.8667773,56.7641326 32.7412713,56.3898635 C32.590664,55.965692 32.7412713,55.4916179 33.1177895,55.2421053 L34.8497733,54.0194932 L34.1720405,52.8717349 L32.2141457,53.7450292 C31.8125263,53.9196881 31.3356032,53.819883 31.0343887,53.4955166 C30.7833765,53.1961014 30.4821619,52.9216374 30.1809474,52.6471735 C29.8295304,52.3477583 29.7291255,51.8736842 29.9299352,51.4495127 L30.8335789,49.5033138 L29.6789231,48.8296296 L28.4238623,50.5762183 C28.1728502,50.9255361 27.6959271,51.0752437 27.2692065,50.9504873 C26.8926883,50.825731 26.51617,50.7259259 26.1145506,50.6510721 C25.6627287,50.5762183 25.336413,50.2019493 25.2862105,49.7528265 L25.0854008,47.557115 L23.7299352,47.557115 L23.5040243,49.7777778 C23.4538219,50.2269006 23.1275061,50.5762183 22.7007854,50.6760234 C22.3242672,50.7508772 21.947749,50.8506823 21.596332,50.9754386 C21.1696113,51.1251462 20.6926883,50.9754386 20.4416761,50.6011696 L19.1615142,48.7797271 L18.0068583,49.4534113 L18.9356032,51.5243665 C19.1113117,51.9235867 19.0109069,52.3976608 18.6845911,52.697076 C18.4084777,52.9465887 18.1323644,53.1961014 17.9064534,53.4705653 C17.6052389,53.819883 17.1283158,53.9196881 16.7015951,53.720078 L14.6181943,52.7469786 L13.9404615,53.8947368 L15.8230526,55.2421053 C16.1744696,55.4916179 16.3250769,55.965692 16.1995709,56.3898635 C16.0740648,56.7391813 15.9736599,57.088499 15.8983563,57.462768 C15.7979514,57.9118908 15.4465344,58.2362573 14.9947126,58.2612086 L12.6854008,58.4608187 L12.6854008,59.8081871 L14.9947126,60.0327485 C15.4465344,60.0826511 15.7979514,60.4070175 15.8983563,60.8561404 C15.9736599,61.2553606 16.0740648,61.6296296 16.1995709,62.0038986 C16.3501781,62.4280702 16.1995709,62.9021442 15.8230526,63.1516569 L13.9404615,64.4990253 L14.6181943,65.6467836 L16.7015951,64.6736842 C17.1032146,64.4740741 17.6052389,64.5738791 17.9064534,64.9231969 C18.1574656,65.1976608 18.4335789,65.4721248 18.7096923,65.7216374 C19.0360081,66.0210526 19.1615142,66.4951267 18.9607045,66.894347 L18.0068583,68.9902534 L19.1615142,69.6639376 L20.4667773,67.8175439 C20.7177895,67.4432749 21.1947126,67.2935673 21.6214332,67.4432749 C21.9728502,67.5680312 22.3493684,67.6678363 22.7258866,67.7426901 C23.1526073,67.8424951 23.5040243,68.1918129 23.5291255,68.6409357 L23.7550364,70.8366472 Z M24.4578704,63.251462 C23.3785182,63.251462 22.3493684,62.8272904 21.5712308,62.0538012 C20.7177895,61.2054581 20.2910688,60.0576998 20.3914737,58.860039 C20.542081,56.8888889 22.1485587,55.3169591 24.1315547,55.1423002 C25.3113117,55.0424951 26.4910688,55.4666667 27.3445101,56.3150097 C28.1979514,57.1633528 28.6246721,58.3111111 28.5242672,59.5087719 C28.3736599,61.479922 26.7671822,63.0518519 24.7841862,63.2265107 C24.6837814,63.2265107 24.5582753,63.251462 24.4578704,63.251462 Z M24.4578704,57.1633528 C24.407668,57.1633528 24.3574656,57.1633528 24.2821619,57.1633528 C23.3032146,57.2382066 22.4999757,58.0366472 22.4246721,59.0097466 C22.3744696,59.608577 22.6003806,60.1824561 23.002,60.6066277 C23.4287206,61.0307992 24.0060486,61.2304094 24.6084777,61.2054581 C25.5874251,61.1306043 26.390664,60.3321637 26.4659676,59.3590643 C26.51617,58.7602339 26.2902591,58.1863548 25.8886397,57.7621832 C25.5121215,57.3879142 24.984996,57.1633528 24.4578704,57.1633528 Z" id="Shape" fill="#4B31AA" fill-rule="nonzero"></path>
                            <path d="M52.4959271,120.464717 L44.764753,120.464717 C41.5768988,120.464717 38.9663725,117.894737 38.9663725,114.700975 L38.9412713,81.4409357 C38.9412713,78.2721248 41.5266964,75.677193 44.7396518,75.677193 L52.4708259,75.677193 C55.6586802,75.677193 58.2692065,78.2471735 58.2692065,81.4409357 L58.2943077,114.700975 C58.2943077,117.894737 55.7088826,120.464717 52.4959271,120.464717 Z" id="Path" fill="#FBB03B"></path>
                            <polygon id="Path" fill="#79A1E8" points="49.3833765 70.8865497 45.0910688 70.8865497 45.0659676 20.4350877 49.3582753 20.4350877"></polygon>
                            <polygon id="Path" fill="#FFFFFF" points="46.3712308 70.8865497 42.0789231 70.8865497 42.0538219 20.4350877 46.3461296 20.4350877"></polygon>
                            <polygon id="Path" fill="#79A1E8" points="50.5882348 1.02300195 43.0829717 1.04795322 40.0959271 15.1703704 42.4805425 21.9321637 51.4918785 21.9321637 53.6003806 15.1454191"></polygon>
                            <polygon id="Path" fill="#FFFFFF" points="47.5007854 1.04795322 39.9955223 1.04795322 36.9833765 15.1703704 39.3930931 21.9321637 48.4044291 21.9321637 50.5129312 15.1454191"></polygon>
                            <path d="M47.1995709,120.489669 L39.4683968,120.489669 C36.2805425,120.489669 33.6700162,117.919688 33.6700162,114.725926 L33.644915,81.4658869 C33.644915,78.297076 36.2303401,75.7021442 39.4432955,75.7021442 L47.1744696,75.7021442 C50.3623239,75.7021442 52.9728502,78.2721248 52.9728502,81.4658869 L52.9979514,114.725926 C52.9979514,117.894737 50.4125263,120.489669 47.1995709,120.489669 Z" id="Path" fill="#F9D015"></path>
                            <path d="M34.2975466,105.369201 L34.2975466,115.299805 C34.2975466,117.919688 36.456251,120.065497 39.0918785,120.065497 L47.5760891,120.065497 C50.2117166,120.065497 52.3704211,117.919688 52.3704211,115.299805 L52.3453198,87.4292398 L34.2975466,105.369201 Z" id="Path" fill="#FBB03B"></path>
                            <g id="Group" transform="translate(38.655870, 80.842105)" fill="#4B31AA">
                                <path d="M1.26434818,34.2580897 C0.712121457,34.2580897 0.235198381,33.8089669 0.235198381,33.2350877 L0.210097166,1.24756335 C0.210097166,0.698635478 0.661919028,0.224561404 1.23924696,0.224561404 C1.79147368,0.224561404 2.26839676,0.673684211 2.26839676,1.24756335 L2.29349798,33.2350877 C2.26839676,33.8089669 1.8165749,34.2580897 1.26434818,34.2580897 Z" id="Path"></path>
                                <path d="M7.69025911,34.2580897 C7.13803239,34.2580897 6.66110931,33.8089669 6.66110931,33.2350877 L6.6360081,1.24756335 C6.6360081,0.698635478 7.08782996,0.224561404 7.64005668,0.224561404 C8.1922834,0.224561404 8.66920648,0.673684211 8.66920648,1.24756335 L8.69430769,33.2350877 C8.71940891,33.8089669 8.24248583,34.2580897 7.69025911,34.2580897 Z" id="Path"></path>
                            </g>
                            <rect id="Rectangle" fill="#FBB03B" x="43.2586802" y="69.3146199" width="10.7182186" height="6.38752437"></rect>
                            <rect id="Rectangle" fill="#F9D015" x="37.9623239" y="69.3146199" width="10.7182186" height="6.38752437"></rect>
                            <path d="M117.558275,50.8756335 L117.558275,42.8413255 L109.877304,42.1676413 C109.676494,41.1196881 109.375279,40.0966862 109.048964,39.0986355 L115.37447,34.6822612 L111.308073,27.745809 L104.254632,30.8896686 C103.928316,30.5403509 103.602,30.1910331 103.275684,29.8417154 L91.2773036,41.7684211 C92.7080729,43.2904483 93.5113117,45.3614035 93.3356032,47.6319688 C93.0343887,51.3497076 90.0222429,54.3688109 86.2821619,54.6432749 C83.9979514,54.8179337 81.9145506,54.0194932 80.3833765,52.597271 L68.384996,64.5239766 C68.7113117,64.8233918 69.0376275,65.1477583 69.3639433,65.4222222 L66.0254818,72.8077973 L73.0287206,76.8249513 L77.6724453,70.2128655 C78.6764939,70.5621832 79.7056437,70.8366472 80.7598947,71.0362573 L81.5631336,78.9208577 L89.6457247,78.9208577 L90.3485587,71.0612086 C91.4530121,70.8615984 92.5072632,70.5621832 93.5615142,70.2128655 L98.1801377,76.5754386 L105.183377,72.5582846 L101.870016,65.4721248 C102.723457,64.7235867 103.551798,63.9251462 104.304834,63.0768031 L111.358275,66.245614 L115.399571,59.2842105 L109.023862,54.9177388 C109.400381,53.8448343 109.676494,52.7469786 109.902405,51.6241715 L117.558275,50.8756335 Z" id="Path" fill="#CFDDF7"></path>
                            <g id="Group" transform="translate(32.631579, 0.000000)" fill="#4B31AA" fill-rule="nonzero">
                                <path d="M7.36394332,0.0249512671 C6.88702024,0.0249512671 6.4602996,0.349317739 6.35989474,0.823391813 L3.3728502,14.945809 C3.32264777,15.1204678 3.34774899,15.320078 3.39795142,15.4947368 L5.80766802,22.2565302 C5.9582753,22.6557505 6.33479352,22.9302144 6.76151417,22.9302144 L8.39309312,22.9302144 L8.41819433,68.2916179 L5.30564372,68.2916179 C5.02953036,68.2916179 4.77851822,68.391423 4.5777085,68.5910331 C4.37689879,68.7906433 4.27649393,69.0401559 4.27649393,69.3146199 L4.27649393,75.1781676 C3.42305263,75.5025341 2.64491498,76.0265107 1.9922834,76.6752437 C0.712121457,77.9477583 0.00928744939,79.6444444 0.00928744939,81.4658869 L0.034388664,114.725926 C0.034388664,116.522417 0.737222672,118.244055 2.04248583,119.516569 C3.32264777,120.789084 5.02953036,121.487719 6.86191903,121.487719 L19.8894494,121.487719 C23.6546316,121.487719 26.6918785,118.443665 26.6918785,114.725926 L26.6667773,81.4658869 C26.6667773,79.6693957 25.9639433,77.9477583 24.6586802,76.6752437 C23.9809474,76.0015595 23.2028097,75.5025341 22.3493684,75.1781676 L22.3493684,69.3146199 C22.3493684,69.0401559 22.2489636,68.7906433 22.0481538,68.5910331 C21.8473441,68.391423 21.596332,68.2916179 21.3202186,68.2916179 L17.7558462,68.2916179 L17.7307449,22.9302144 L18.8602996,22.9302144 C19.3121215,22.9302144 19.6886397,22.6307992 19.839247,22.2066277 L21.947749,15.419883 C21.9979514,15.2452242 21.9979514,15.0705653 21.9728502,14.9208577 L18.9607045,0.798440546 C18.8602996,0.324366472 18.4586802,-3.28626015e-14 17.9566559,-3.28626015e-14 L7.36394332,0.0249512671 Z M20.31617,70.3126706 L20.31617,74.6791423 L17.0530121,74.6791423 L17.0530121,70.3126706 L20.31617,70.3126706 Z M15.747749,68.2916179 L14.7688016,68.2916179 L14.7437004,22.9302144 L15.7226478,22.9302144 L15.747749,68.2916179 Z M19.9145506,15.0955166 L18.1072632,20.9091618 L17.153417,20.9091618 L18.8351984,15.4448343 C18.8854008,15.2701754 18.8854008,15.0955166 18.8602996,14.945809 L16.099166,2.0460039 L17.1032146,2.0460039 L19.9145506,15.0955166 Z M5.40604858,15.0955166 L8.16718219,2.0460039 L12.9866154,2.0460039 L14.0157652,2.0460039 L16.802,15.0955166 L14.9947126,20.9091618 L7.46434818,20.9091618 L5.40604858,15.0955166 Z M11.6060486,22.9551657 L12.6854008,22.9551657 L12.710502,68.3165692 L10.4513927,68.3165692 L10.4262915,22.9551657 L11.6060486,22.9551657 Z M15.0198138,70.3126706 L15.0198138,74.6791423 L6.33479352,74.6791423 L6.33479352,70.3126706 L15.0198138,70.3126706 Z M17.9566559,118.069396 C17.0530121,118.967641 15.8481538,119.466667 14.5930931,119.466667 L6.86191903,119.466667 C5.58175709,119.466667 4.402,118.967641 3.49835628,118.069396 C2.59471255,117.17115 2.09268826,115.973489 2.09268826,114.725926 L2.06758704,81.4658869 C2.06758704,78.8460039 4.20119028,76.7251462 6.83681781,76.7251462 L14.5679919,76.7251462 C15.8481538,76.7251462 17.0279109,77.2241715 17.9315547,78.1224172 C18.8351984,79.0206628 19.3372227,80.2183236 19.3372227,81.4658869 L19.3623239,114.725926 C19.3372227,115.998441 18.8602996,117.17115 17.9566559,118.069396 Z M19.8643482,119.466667 L19.4125263,119.466667 C20.667587,118.194152 21.3704211,116.497466 21.3704211,114.725926 L21.3453198,81.4658869 C21.3453198,79.6693957 20.6424858,77.9976608 19.3874251,76.7251462 L19.839247,76.7251462 C21.1194089,76.7251462 22.299166,77.2241715 23.2028097,78.1224172 C24.1064534,79.0206628 24.6084777,80.2183236 24.6084777,81.4658869 L24.6335789,114.725926 C24.6335789,117.320858 22.4999757,119.466667 19.8643482,119.466667 Z" id="Shape"></path>
                                <path d="M88.3404615,41.8432749 L81.3874251,41.2444444 C81.261919,40.6705653 81.0862105,40.0717349 80.910502,39.522807 L86.6084777,35.5555556 C87.0351984,35.2561404 87.1607045,34.6822612 86.9096923,34.2331384 L82.893498,27.2467836 C82.7177895,26.9224172 82.3663725,26.7477583 82.0149555,26.7477583 L78.6764939,26.7477583 C78.5509879,26.7477583 78.4003806,26.7727096 78.2748745,26.8226121 L74.2084777,28.6440546 C74.0829717,28.5192982 73.9574656,28.3945419 73.8319595,28.2697856 L76.7939028,21.9321637 C77.0198138,21.4580897 76.8441053,20.8842105 76.3922834,20.6346979 L69.3890445,16.6175439 C69.2384372,16.5177388 69.0627287,16.4927875 68.8870202,16.4927875 L65.5485587,16.4927875 C65.2473441,16.4927875 64.9461296,16.6175439 64.7704211,16.8670565 L61.8837814,20.3851852 L61.4068583,14.9957115 C61.3566559,14.4717349 60.9299352,14.0725146 60.4028097,14.0725146 L57.0643482,14.0725146 L52.3202186,14.0725146 L48.9817571,14.0725146 C48.4546316,14.0725146 48.0279109,14.4717349 47.9777085,14.9707602 L47.4003806,20.6596491 L44.6141457,16.7173489 C44.413336,16.442885 44.1121215,16.2931774 43.8109069,16.2931774 C43.8109069,16.2931774 43.8109069,16.2931774 43.7858057,16.2931774 L40.4473441,16.2931774 C40.4222429,16.2931774 40.3720405,16.2931774 40.3469393,16.2931774 C40.196332,16.3181287 40.0708259,16.3430799 39.9453198,16.4179337 L32.942081,20.4350877 C32.4902591,20.6846004 32.3145506,21.2584795 32.5153603,21.7325536 L35.5275061,28.3695906 C35.4773036,28.4194932 35.402,28.494347 35.3517976,28.5442495 L30.8837814,26.4732943 C30.7582753,26.4233918 30.607668,26.3734893 30.4821619,26.3734893 L30.4570607,26.3734893 L27.1185992,26.3734893 L27.093498,26.3734893 C26.742081,26.3734893 26.4157652,26.5730994 26.2400567,26.8725146 L22.1987611,33.8339181 C21.947749,34.2830409 22.0732551,34.8569201 22.4748745,35.1563353 L28.5242672,39.4729045 C28.3485587,40.0218324 28.1979514,40.5957115 28.0724453,41.1695906 L20.6424858,41.8183236 C20.1153603,41.8682261 19.7137409,42.2923977 19.7137409,42.8163743 L19.7137409,50.8506823 C19.7137409,51.3746589 20.1153603,51.7988304 20.6173846,51.8487329 L28.0222429,52.597271 C28.1728502,53.2460039 28.3485587,53.8947368 28.5242672,54.5185185 L22.4246721,58.860039 C21.9979514,59.1594542 21.8724453,59.7333333 22.1485587,60.1824561 L26.1898543,67.1438596 C26.3655628,67.4432749 26.6918785,67.6179337 27.0181943,67.642885 C27.0432955,67.642885 27.0683968,67.642885 27.0683968,67.642885 L30.4068583,67.642885 L30.4319595,67.642885 C30.5574656,67.642885 30.7080729,67.6179337 30.8335789,67.5430799 L35.3015951,65.4721248 C35.3768988,65.5469786 35.4522024,65.6218324 35.5275061,65.6717349 L32.4651579,72.408577 C32.239247,72.8826511 32.4400567,73.4315789 32.8918785,73.7060429 L39.8951174,77.7231969 C39.9704211,77.7481481 40.0206235,77.7980507 40.0959271,77.7980507 C40.1712308,77.8230019 40.2465344,77.8479532 40.3218381,77.8479532 L43.7356032,77.8479532 C43.7356032,77.8479532 43.7356032,77.8479532 43.7607045,77.8479532 C43.7858057,77.8479532 43.8109069,77.8479532 43.8360081,77.8479532 L43.8611093,77.8479532 C44.1372227,77.8230019 44.413336,77.6732943 44.5890445,77.4237817 L47.3752794,73.4814815 L47.9526073,79.0705653 C48.0028097,79.5945419 48.4546316,79.9688109 48.9566559,79.9688109 L52.2951174,79.9688109 L57.039247,79.9688109 L60.3777085,79.9688109 C60.904834,79.9688109 61.3566559,79.5695906 61.3817571,79.045614 L61.8837814,73.3317739 L64.7202186,77.2241715 C64.9210283,77.4986355 65.2222429,77.6483431 65.5234575,77.6483431 C65.5234575,77.6483431 65.5234575,77.6483431 65.5485587,77.6483431 L68.861919,77.6483431 C68.8870202,77.6483431 68.8870202,77.6483431 68.9121215,77.6483431 C69.0627287,77.6483431 69.2384372,77.5984405 69.3639433,77.5235867 L76.3671822,73.5064327 C76.819004,73.2319688 76.9947126,72.6830409 76.7688016,72.2089669 L73.7817571,65.7964912 C73.9323644,65.6717349 74.0578704,65.5220273 74.2084777,65.397271 L78.2748745,67.2187135 C78.4003806,67.268616 78.5258866,67.2935673 78.6764939,67.3185185 L78.7015951,67.3185185 L82.0400567,67.3185185 C82.0651579,67.3185185 82.0902591,67.3185185 82.1153603,67.3185185 C82.4416761,67.2935673 82.7428907,67.1189084 82.9185992,66.8194932 L86.9598947,59.8580897 C87.2360081,59.4089669 87.0854008,58.8350877 86.6586802,58.5356725 L80.9607045,54.5684211 C81.1615142,53.9196881 81.3372227,53.2709552 81.48783,52.6222222 L88.390664,51.9235867 C88.9177895,51.8736842 89.2943077,51.4245614 89.2943077,50.9255361 L89.2943077,42.8912281 C89.2692065,42.3173489 88.867587,41.8931774 88.3404615,41.8432749 Z M81.4376275,28.7438596 L84.299166,33.6842105 L83.2951174,33.6842105 L80.4335789,28.7438596 L81.4376275,28.7438596 Z M73.5307449,21.3333333 L74.5598947,21.9321637 L71.9493684,27.5212476 L70.844915,27.5212476 L73.4554413,21.957115 C73.5307449,21.7575049 73.5558462,21.5329435 73.5307449,21.3333333 Z M59.4238623,16.0935673 L59.9760891,22.4311891 C59.5242672,22.3064327 59.0975466,22.1816764 58.6457247,22.0818713 L58.1185992,16.068616 L59.4238623,16.0935673 Z M43.4343887,18.6385965 L46.0951174,22.4311891 C45.8692065,22.5060429 45.6181943,22.5559454 45.3922834,22.6307992 L42.8319595,18.9879142 L43.4343887,18.6385965 Z M43.4343887,75.5025341 L42.8319595,75.1532164 L45.4424858,71.4354776 C45.6683968,71.5103314 45.9194089,71.5851852 46.1453198,71.6350877 L43.4343887,75.5025341 Z M59.4238623,77.9477583 L58.1185992,77.9477583 L58.6457247,71.9345029 C59.0975466,71.8346979 59.5242672,71.7099415 59.9760891,71.6101365 L59.4238623,77.9477583 Z M74.5598947,72.2089669 L73.5307449,72.8077973 C73.5558462,72.6081871 73.5558462,72.408577 73.4554413,72.2089669 L70.8198138,66.5699805 L71.9242672,66.5699805 L74.5598947,72.2089669 Z M84.3493684,60.2822612 L81.613336,64.9980507 L80.8351984,64.6487329 L83.3955223,60.2573099 L84.3493684,60.2822612 Z M83.8975466,49.9773879 L77.1704211,50.6510721 C76.7185992,50.7009747 76.3671822,51.0253411 76.2667773,51.4744639 C76.0659676,52.5473684 75.7898543,53.5953216 75.4384372,54.6183236 C75.28783,55.0424951 75.4384372,55.5165692 75.8149555,55.7660819 L81.3874251,59.6335283 L78.2748745,64.9980507 L72.0748745,62.22846 C71.6732551,62.0538012 71.196332,62.1536062 70.8951174,62.4779727 C70.1671822,63.3013645 69.3890445,64.0748538 68.5607045,64.7734893 C68.2092874,65.0729045 68.1088826,65.5469786 68.3096923,65.9711501 L71.2214332,72.2089669 L65.8246721,75.302924 L61.7582753,69.6639376 C61.5072632,69.3146199 61.0303401,69.1649123 60.6036194,69.2896686 C59.5995709,69.6140351 58.5704211,69.888499 57.51617,70.0881092 C57.0643482,70.162963 56.7380324,70.537232 56.68783,70.9863548 L56.0854008,77.922807 L49.8602996,77.922807 L49.1574656,70.9364522 C49.1072632,70.4873294 48.7809474,70.1380117 48.3542267,70.0382066 C47.3501781,69.8385965 46.3461296,69.5641326 45.3922834,69.2397661 C44.9655628,69.0900585 44.4886397,69.2397661 44.2376275,69.6140351 L40.1210283,75.4526316 L34.699166,72.408577 L37.6611093,65.871345 C37.8368178,65.4721248 37.736413,64.9980507 37.4100972,64.6986355 C36.6570607,64.0249513 35.9291255,63.3013645 35.2513927,62.5528265 C34.9501781,62.2035088 34.4732551,62.1037037 34.0465344,62.3033138 L27.4700162,65.3473684 L24.3574656,59.982846 L30.256251,55.7660819 C30.607668,55.5165692 30.7582753,55.0424951 30.6327692,54.6183236 C30.2813522,53.6202729 30.0052389,52.5723197 29.8044291,51.5243665 C29.7291255,51.0752437 29.3526073,50.7508772 28.9007854,50.7009747 L21.6716356,49.9773879 L21.6716356,43.7894737 L28.9258866,43.165692 C29.3777085,43.1157895 29.7542267,42.791423 29.8295304,42.3672515 C30.0303401,41.394152 30.3064534,40.3961014 30.607668,39.4479532 C30.7582753,39.0237817 30.607668,38.5497076 30.2311498,38.3001949 L24.3323644,34.0834308 L27.444915,28.7189084 L34.0214332,31.762963 C34.4230526,31.9625731 34.9250769,31.862768 35.2262915,31.5134503 C35.8789231,30.7649123 36.6068583,30.0413255 37.3598947,29.3925926 C37.6862105,29.0931774 37.7866154,28.6191033 37.6109069,28.219883 L34.6740648,21.7575049 L40.0708259,18.6635478 L44.1372227,24.4272904 C44.3882348,24.8015595 44.8651579,24.9512671 45.2918785,24.8015595 C46.2708259,24.477193 47.2999757,24.202729 48.3040243,23.9781676 C48.7307449,23.8783626 49.0821619,23.5290448 49.1072632,23.079922 L49.8100972,16.0935673 L56.0351984,16.0935673 L56.6376275,23.0300195 C56.68783,23.4791423 57.0141457,23.8534113 57.4659676,23.9282651 C58.5202186,24.1278752 59.5744696,24.4023392 60.6036194,24.7516569 C61.0303401,24.9013645 61.5072632,24.7516569 61.7582753,24.3773879 L65.7744696,18.8382066 L71.1712308,21.9321637 L68.2845911,28.0951267 C68.0837814,28.494347 68.2092874,28.9933723 68.5356032,29.2927875 C69.3388421,29.991423 70.1169798,30.7649123 70.8198138,31.5633528 C71.1210283,31.8877193 71.5979514,32.0124756 71.9995709,31.8128655 L78.1995709,29.0432749 L81.3121215,34.4077973 L75.7396518,38.2752437 C75.3631336,38.5247563 75.2125263,38.9988304 75.3631336,39.4230019 C75.6894494,40.3711501 75.9655628,41.3692008 76.1663725,42.3672515 C76.2667773,42.8163743 76.6181943,43.1407407 77.0700162,43.165692 L83.8222429,43.7645224 L83.8975466,49.9773879 Z M79.4044291,52.4475634 C79.2789231,52.9465887 79.153417,53.4206628 79.0028097,53.9196881 L77.7728502,53.9196881 C77.8983563,53.4705653 78.0238623,53.0214425 78.1242672,52.5723197 L79.4044291,52.4475634 Z M79.3291255,41.3442495 L78.0489636,41.2444444 C77.9485587,40.8452242 77.8481538,40.4709552 77.747749,40.0717349 L78.9526073,40.0218324 C79.1032146,40.4460039 79.2287206,40.8951267 79.3291255,41.3442495 Z M87.2360081,49.9773879 L85.9307449,50.1021442 L85.9307449,43.6647173 L87.2360081,43.7894737 L87.2360081,49.9773879 Z" id="Shape"></path>
                                <path d="M59.1979514,40.8701754 C57.390664,39.0736842 54.8805425,38.1504873 52.3202186,38.3500975 C48.1032146,38.6744639 44.6643482,42.0927875 44.3380324,46.3095517 C44.1372227,48.8545809 45.0659676,51.3497076 46.8732551,53.1461988 C48.5299352,54.7929825 50.7388421,55.6912281 53.0481538,55.6912281 C53.2740648,55.6912281 53.4999757,55.6912281 53.7509879,55.6662768 C57.9679919,55.3419103 61.4068583,51.9235867 61.7582753,47.7068226 C61.9339838,45.1617934 61.0052389,42.6916179 59.1979514,40.8701754 Z M46.3712308,46.4842105 C46.5469393,44.1387914 48.0028097,42.1177388 50.0360081,41.0947368 C48.7056437,42.4920078 47.8271012,44.3134503 47.6764939,46.3345029 C47.4756842,48.7797271 48.3291255,51.2 50.0109069,52.97154 C49.3833765,52.6471735 48.8060486,52.2479532 48.3040243,51.7489279 C46.9234575,50.3516569 46.1955223,48.4304094 46.3712308,46.4842105 Z M59.6999757,47.557115 C59.4740648,50.4015595 57.4157652,52.7469786 54.704834,53.445614 C53.5501781,53.1461988 52.4959271,52.5723197 51.6424858,51.6990253 C50.261919,50.3267057 49.559085,48.4054581 49.7096923,46.4592593 C49.9356032,43.6148148 51.9939028,41.2693957 54.704834,40.5707602 C55.8594899,40.8701754 56.9137409,41.4690058 57.7671822,42.3173489 C59.147749,43.6896686 59.850583,45.6109162 59.6999757,47.557115 Z" id="Shape"></path>
                            </g>
                            <path d="M85.6797328,60.9309942 C77.9736599,60.9309942 71.6983563,54.6931774 71.6983563,47.0331384 C71.6983563,39.3730994 77.9736599,33.1352827 85.6797328,33.1352827 C93.3858057,33.1352827 99.6611093,39.3730994 99.6611093,47.0331384 C99.6611093,54.6931774 93.3858057,60.9309942 85.6797328,60.9309942 Z M85.6797328,38.4249513 C80.910502,38.4249513 77.044915,42.2923977 77.044915,47.0081871 C77.044915,51.7239766 80.9356032,55.591423 85.6797328,55.591423 C90.4238623,55.591423 94.3145506,51.7239766 94.3145506,47.0081871 C94.3145506,42.2923977 90.4489636,38.4249513 85.6797328,38.4249513 Z" id="Shape" fill="#FBB03B" fill-rule="nonzero"></path>
                        </g>
                    </g>
                </g>
            </g>
        </g>
    </g>
</svg>