<?xml version="1.0" encoding="UTF-8"?>
<svg width="128px" height="109px" viewBox="0 0 128 109" version="1.1" xmlns="http://www.w3.org/2000/svg" xmlns:xlink="http://www.w3.org/1999/xlink">
    <!-- Generator: Sketch 52.5 (67469) - http://www.bohemiancoding.com/sketch -->
    <title>577008</title>
    <desc>Created with Sketch.</desc>
    <g id="V3" stroke="none" stroke-width="1" fill="none" fill-rule="evenodd">
        <g id="-1440---Desktop---Home---V2" transform="translate(-662.000000, -4661.000000)">
            <g id="Slide-6" transform="translate(0.000000, 3915.000000)">
                <g id="Group-8" transform="translate(180.000000, 162.000000)">
                    <g id="Content-Copy-5" transform="translate(375.000000, 534.000000)">
                        <g id="577008" transform="translate(107.000000, 50.000000)">
                            <path d="M105.64225,3.74625 C141.196,-4.82 131.70225,70.835 95.776,77.1235 C48.7765,85.3505 37.095,102.52925 10.7405,78.47225 C-5.91725,63.2665 -0.23975,54.117 7.984,25.8475 C18.31925,-9.67975 62.9935,14.02175 105.64225,3.74625 Z" id="Path" fill="#79A1E8"></path>
                            <rect id="Rectangle" fill="#D7ECF9" x="94.653" y="51.959" width="6.17025" height="7.8155"></rect>
                            <polygon id="Path" fill="#FFFFFF" points="119.3335 57.9235 119.3335 53.81 104.42225 47.64 98.76625 51.7535 98.76625 59.98025 104.42225 64.09375"></polygon>
                            <circle id="Oval" fill="#D7ECF9" cx="106.993" cy="55.86675" r="2.05675"></circle>
                            <polygon id="Path" fill="#E1F0FA" points="86.52875 49.69675 27.9125 53.296 27.9125 57.40925 86.52875 62.037"></polygon>
                            <path d="M95.57825,59.8945 L95.57825,51.839 C95.57825,50.65575 94.619,49.6965 93.43575,49.6965 L86.5285,49.6965 L86.5285,62.03675 L93.43575,62.03675 C94.61925,62.037 95.57825,61.07775 95.57825,59.8945 Z" id="Path" fill="#FBB03B"></path>
                            <path d="M119.7185,52.8795 L104.80725,46.7095 C104.4845,46.57575 104.11375,46.6195 103.83,46.8255 L98.174,50.939 C98.1685,50.943 98.16375,50.94775 98.15825,50.952 L96.456,50.952 C96.07175,49.64625 94.86425,48.68975 93.436,48.68975 L86.529,48.68975 C86.518,48.68975 86.50775,48.69275 86.49675,48.693 C86.48675,48.69325 86.47725,48.69125 86.46725,48.69175 L27.851,52.291 C27.31975,52.3235 26.90575,52.76375 26.90575,53.296 L26.90575,57.4095 C26.90575,57.935 27.30975,58.372 27.8335,58.41325 L86.44975,63.04075 C86.476,63.043 86.5025,63.044 86.529,63.044 L93.436,63.044 C94.86425,63.044 96.07175,62.08725 96.456,60.78175 L98.158,60.78175 C98.1635,60.786 98.1685,60.791 98.17425,60.795 L103.83025,64.9085 C104.005,65.0355 104.213,65.101 104.4225,65.101 C104.55275,65.101 104.6835,65.07575 104.8075,65.0245 L119.71875,58.85425 C120.09525,58.6985 120.34075,58.331 120.34075,57.92375 L120.34075,53.81 C120.3405,53.4025 120.09475,53.03525 119.7185,52.8795 Z M85.52175,60.94725 L28.9195,56.47875 L28.9195,54.243 L85.52175,50.76725 L85.52175,60.94725 Z M97.75925,58.7675 L96.58525,58.7675 L96.58525,52.966 L97.75925,52.966 L97.75925,58.7675 Z M94.57125,59.8945 C94.57125,60.5205 94.06175,61.02975 93.436,61.02975 L87.536,61.02975 L87.536,50.7035 L93.436,50.7035 C94.062,50.7035 94.57125,51.213 94.57125,51.83875 L94.57125,59.8945 Z M104.5585,62.9475 L99.7735,59.4675 L99.7735,52.26625 L104.5585,48.78625 L118.3265,54.48325 L118.3265,54.86 L109.8835,54.86 C109.46575,53.6645 108.3295,52.80325 106.9935,52.80325 C105.304,52.80325 103.92975,54.1775 103.92975,55.867 C103.92975,57.55625 105.304,58.9305 106.9935,58.9305 C108.3295,58.9305 109.46575,58.06925 109.8835,56.874 L118.32675,56.874 L118.32675,57.2505 L104.5585,62.9475 Z M108.04275,55.86675 C108.04275,56.4455 107.572,56.91625 106.99325,56.91625 C106.4145,56.91625 105.9435,56.4455 105.9435,55.86675 C105.9435,55.288 106.4145,54.817 106.99325,54.817 C107.572,54.817 108.04275,55.288 108.04275,55.86675 Z" id="Shape" fill="#4B31AA" fill-rule="nonzero"></path>
                            <g id="Group" transform="translate(38.750000, 1.000000)" fill="#E1F0FA">
                                <path d="M0.11025,40.797 C5.49525,40.797 9.8605,36.4315 9.8605,31.04675 L9.8605,0.14575 L72.9405,0.14575 L72.9405,31.04675 C72.9405,36.43175 68.575,40.797 63.19025,40.797 L0.11025,40.797 Z" id="Path"></path>
                            </g>
                            <path d="M111.6905,1.1455 L100.708,1.1455 L60.0565,41.797 L101.94025,41.797 C107.32525,41.797 111.6905,37.4315 111.6905,32.04675 L111.6905,1.1455 Z" id="Path" fill="#BAD9E8"></path>
                            <path d="M82.151,15.83 C87.536,15.83 91.90125,20.1955 91.90125,25.58025 L91.90125,32.04575 C91.90125,37.43075 96.26675,41.796 101.6515,41.796 L65.66275,41.796 L65.66275,15.83 L82.151,15.83" id="Path" fill="#5C7BBF"></path>
                            <path d="M72.40075,107.3605 L72.40075,25.5805 C72.40075,20.1955 76.76625,15.83025 82.151,15.83025 L20.27375,15.83025 C14.88875,15.83025 10.5235,20.19575 10.5235,25.5805 L10.5235,107.3605 L72.40075,107.3605 Z" id="Path" fill="#FFFFFF"></path>
                            <circle id="Oval" stroke="#4B31AA" stroke-width="2" fill="#FBB03B" fill-rule="nonzero" cx="40" cy="30.6700764" r="7"></circle>
                            <path d="M10.5235,107.3605 L72.40075,107.3605 L72.40075,25.5805 C72.40075,24.87625 72.477,24.19025 72.619,23.52825 L10.5235,85.6235 L10.5235,107.3605 Z" id="Path" fill="#CFDDF7"></path>
                            <path d="M111.69075,0.1385 L48.61075,0.1385 C48.0545,0.1385 47.60375,0.5895 47.60375,1.1455 L47.60375,14.823 L20.27375,14.823 C14.342,14.823 9.51625,19.64875 9.51625,25.5805 L9.51625,107.3605 C9.51625,107.91675 9.96725,108.3675 10.52325,108.3675 L72.4005,108.3675 C72.95675,108.3675 73.4075,107.9165 73.4075,107.3605 L73.4075,42.804 L101.94,42.804 C107.87175,42.80375 112.6975,37.97775 112.6975,32.0465 L112.6975,1.1455 C112.69775,0.5895 112.24675,0.1385 111.69075,0.1385 Z M71.39375,106.3535 L11.5305,106.3535 L11.5305,25.5805 C11.5305,20.7595 15.45275,16.837 20.274,16.837 L71.0685,16.837 L75.891,16.837 C73.1695,18.791 71.394,21.982 71.394,25.5805 L71.39375,106.3535 Z M90.8945,25.5805 L90.8945,32.04575 C90.8945,35.644 92.67,38.835 95.39125,40.78925 L73.40775,40.78925 L73.40775,25.5805 C73.40775,20.7595 77.33,16.837 82.15125,16.837 C86.972,16.837 90.8945,20.7595 90.8945,25.5805 Z M110.68375,32.04675 C110.68375,36.86775 106.76125,40.78975 101.94025,40.79025 L101.6615,40.79025 C101.65825,40.79025 101.655,40.78925 101.65175,40.78925 C96.83075,40.78925 92.90875,36.867 92.90875,32.04575 L92.90875,25.5805 C92.90875,19.64875 88.083,14.823 82.15125,14.823 L70.905,14.823 L49.61775,14.823 L49.61775,2.1525 L110.68375,2.1525 L110.68375,32.04675 Z" id="Shape" fill="#4B31AA" fill-rule="nonzero"></path>
                            <g id="Group" transform="translate(23.000000, 71.000000)" fill="#79A1E8">
                                <path d="M33.62225,2.02925 L1.2295,2.02925 C0.67325,2.02925 0.2225,1.57825 0.2225,1.02225 C0.2225,0.46625 0.6735,0.01525 1.2295,0.01525 L33.62225,0.01525 C34.1785,0.01525 34.62925,0.46625 34.62925,1.02225 C34.62925,1.5785 34.17825,2.02925 33.62225,2.02925 Z" id="Path"></path>
                                <path d="M33.62225,7.45175 L1.2295,7.45175 C0.67325,7.45175 0.2225,7.00075 0.2225,6.44475 C0.2225,5.88875 0.6735,5.43775 1.2295,5.43775 L33.62225,5.43775 C34.1785,5.43775 34.62925,5.88875 34.62925,6.44475 C34.62925,7.00075 34.17825,7.45175 33.62225,7.45175 Z" id="Path"></path>
                                <path d="M33.62225,12.87425 L1.2295,12.87425 C0.67325,12.87425 0.2225,12.42325 0.2225,11.86725 C0.2225,11.31125 0.6735,10.86025 1.2295,10.86025 L33.62225,10.86025 C34.1785,10.86025 34.62925,11.31125 34.62925,11.86725 C34.62925,12.4235 34.17825,12.87425 33.62225,12.87425 Z" id="Path"></path>
                                <path d="M33.62225,18.29675 L1.2295,18.29675 C0.67325,18.29675 0.2225,17.84575 0.2225,17.28975 C0.2225,16.73375 0.6735,16.28275 1.2295,16.28275 L33.62225,16.28275 C34.1785,16.28275 34.62925,16.73375 34.62925,17.28975 C34.62925,17.84575 34.17825,18.29675 33.62225,18.29675 Z" id="Path"></path>
                            </g>
                            <g id="Group-Copy" transform="translate(23.000000, 43.537000)" fill="#79A1E8">
                                <path d="M33.62225,2.02925 L1.2295,2.02925 C0.67325,2.02925 0.2225,1.57825 0.2225,1.02225 C0.2225,0.46625 0.6735,0.01525 1.2295,0.01525 L33.62225,0.01525 C34.1785,0.01525 34.62925,0.46625 34.62925,1.02225 C34.62925,1.5785 34.17825,2.02925 33.62225,2.02925 Z" id="Path"></path>
                                <path d="M33.62225,7.45175 L1.2295,7.45175 C0.67325,7.45175 0.2225,7.00075 0.2225,6.44475 C0.2225,5.88875 0.6735,5.43775 1.2295,5.43775 L33.62225,5.43775 C34.1785,5.43775 34.62925,5.88875 34.62925,6.44475 C34.62925,7.00075 34.17825,7.45175 33.62225,7.45175 Z" id="Path"></path>
                                <path d="M33.62225,12.87425 L1.2295,12.87425 C0.67325,12.87425 0.2225,12.42325 0.2225,11.86725 C0.2225,11.31125 0.6735,10.86025 1.2295,10.86025 L33.62225,10.86025 C34.1785,10.86025 34.62925,11.31125 34.62925,11.86725 C34.62925,12.4235 34.17825,12.87425 33.62225,12.87425 Z" id="Path"></path>
                                <path d="M33.62225,18.29675 L1.2295,18.29675 C0.67325,18.29675 0.2225,17.84575 0.2225,17.28975 C0.2225,16.73375 0.6735,16.28275 1.2295,16.28275 L33.62225,16.28275 C34.1785,16.28275 34.62925,16.73375 34.62925,17.28975 C34.62925,17.84575 34.17825,18.29675 33.62225,18.29675 Z" id="Path"></path>
                            </g>
                            <g id="Group" transform="translate(57.000000, 76.000000)" fill="#FFFFFF">
                                <path d="M25.2005,12.9155 C25.2005,8.884 28.4685,5.616 32.5,5.616 C36.53125,5.616 39.7995,8.884 39.7995,12.9155" id="Path"></path>
                                <circle id="Oval" cx="12.756" cy="12.91575" r="12.72525"></circle>
                            </g>
                            <path d="M79.446,80.67175 L61.51225,98.6055 C63.73275,100.49725 66.61,101.64075 69.756,101.64075 C76.784,101.64075 82.48125,95.9435 82.48125,88.9155 C82.481,85.76975 81.33775,82.8925 79.446,80.67175 Z" id="Path" fill="#CFDDF7"></path>
                            <circle id="Oval" fill="#FFFFFF" cx="109.17275" cy="88.91575" r="12.72525"></circle>
                            <path d="M119.0245,80.871 L101.128,98.7675 C103.3205,100.561 106.119,101.64075 109.1725,101.64075 C116.2005,101.64075 121.89775,95.9435 121.89775,88.9155 C121.89775,85.86175 120.818,83.06325 119.0245,80.871 Z" id="Path" fill="#CFDDF7"></path>
                            <path d="M109.17275,75.18325 C103.27425,75.18325 98.2335,78.92175 96.293,84.15325 C94.7895,82.0135 92.308,80.609 89.49975,80.609 C86.663,80.609 84.15875,82.0415 82.66,84.21775 C80.73725,78.9525 75.67875,75.18325 69.756,75.18325 C62.184,75.18325 56.02375,81.3435 56.02375,88.91525 C56.02375,96.48725 62.184,102.6475 69.756,102.6475 C77.32775,102.6475 83.488,96.48725 83.488,88.91525 C83.488,88.39375 83.456,87.8795 83.399,87.373 C84.0885,84.6465 86.56175,82.623 89.4995,82.623 C92.3735,82.623 94.80175,84.56025 95.5515,87.197 C95.48075,87.7605 95.44025,88.333 95.44025,88.9155 C95.44025,96.4875 101.6005,102.64775 109.1725,102.64775 C116.7445,102.64775 122.90475,96.4875 122.90475,88.9155 C122.905,81.3435 116.74475,75.18325 109.17275,75.18325 Z M69.756,100.63375 C63.29475,100.63375 58.03775,95.37675 58.03775,88.9155 C58.03775,82.45425 63.29475,77.1975 69.756,77.1975 C76.21725,77.1975 81.474,82.45425 81.474,88.9155 C81.474,95.37675 76.21725,100.63375 69.756,100.63375 Z M109.17275,100.63375 C102.7115,100.63375 97.4545,95.37675 97.4545,88.9155 C97.4545,82.45425 102.7115,77.1975 109.17275,77.1975 C115.634,77.1975 120.891,82.45425 120.891,88.9155 C120.89075,95.37675 115.634,100.63375 109.17275,100.63375 Z" id="Shape" fill="#4B31AA" fill-rule="nonzero"></path>
                            <path d="M64.7815,92.735 C64.52375,92.735 64.26625,92.63675 64.0695,92.44 C63.67625,92.04675 63.67625,91.40925 64.0695,91.016 L71.66425,83.4215 C72.05725,83.02825 72.695,83.02825 73.08825,83.4215 C73.4815,83.81475 73.4815,84.45225 73.08825,84.8455 L65.4935,92.44 C65.29725,92.63675 65.03925,92.735 64.7815,92.735 Z" id="Path" fill="#4B31AA"></path>
                            <path d="M63.355,87.36425 C63.09725,87.36425 62.8395,87.266 62.643,87.06925 C62.24975,86.676 62.24975,86.03825 62.643,85.64525 L66.12575,82.16275 C66.519,81.7695 67.157,81.7695 67.54975,82.16275 C67.943,82.556 67.943,83.19375 67.54975,83.58675 L64.067,87.06925 C63.87025,87.266 63.6125,87.36425 63.355,87.36425 Z" id="Path" fill="#4B31AA"></path>
                            <path d="M104.47525,92.735 C104.2175,92.735 103.95975,92.63675 103.76325,92.44 C103.37,92.04675 103.37,91.40925 103.76325,91.016 L111.35775,83.4215 C111.75075,83.02825 112.389,83.02825 112.78175,83.4215 C113.175,83.81475 113.175,84.45225 112.78175,84.8455 L105.18725,92.44 C104.991,92.63675 104.733,92.735 104.47525,92.735 Z" id="Path" fill="#4B31AA"></path>
                            <path d="M103.0485,87.36425 C102.79075,87.36425 102.533,87.266 102.3365,87.06925 C101.94325,86.676 101.94325,86.03825 102.3365,85.64525 L105.819,82.16275 C106.212,81.7695 106.85025,81.7695 107.243,82.16275 C107.63625,82.556 107.63625,83.19375 107.243,83.58675 L103.7605,87.06925 C103.56425,87.266 103.30625,87.36425 103.0485,87.36425 Z" id="Path" fill="#4B31AA"></path>
                        </g>
                    </g>
                </g>
            </g>
        </g>
    </g>
</svg>